<svg xmlns="http://www.w3.org/2000/svg" viewBox="0 0 32 32" role="img" aria-label="MFE host">
  <defs>
    <linearGradient id="dumbbellFill" x1="0%" y1="0%" x2="100%" y2="100%">
      <stop offset="0%" stop-color="#323232" />
      <stop offset="100%" stop-color="#111111" />
    </linearGradient>
    <linearGradient id="handleFill" x1="0%" y1="0%" x2="100%" y2="0%">
      <stop offset="0%" stop-color="#d1d5db" />
      <stop offset="100%" stop-color="#a3a3a3" />
    </linearGradient>
  </defs>
  <g transform="rotate(-12 16 14)">
    <rect x="10.2" y="13.1" width="11.6" height="2.2" rx="1.1" fill="url(#handleFill)" />
    <path
      d="M 21.1 4.2 C 20.35 4.2 19.58 4.48 19.02 5.04 C 18.64 5.42 18.41 5.88 18.28 6.37 C 18.07 6.33 17.86 6.28 17.65 6.28 C 16.9 6.28 16.14 6.54 15.57 7.11 C 14.44 8.24 14.44 10.1 15.57 11.23 L 16.39 12.05 L 11.5 16.94 L 10.68 16.12 C 10.11 15.55 9.37 15.25 8.62 15.25 C 7.87 15.25 7.1 15.55 6.53 16.12 C 5.8 16.85 5.54 17.89 5.75 18.84 C 5.28 18.96 4.84 19.18 4.47 19.55 C 3.34 20.68 3.34 22.54 4.47 23.67 L 5.81 25.01 L 5.14 25.68 L 6.54 27.08 L 7.21 26.41 L 8.58 27.75 C 9.71 28.88 11.57 28.88 12.7 27.75 C 13.07 27.38 13.31 26.93 13.44 26.45 C 14.39 26.66 15.42 26.41 16.15 25.68 C 17.28 24.55 17.28 22.69 16.15 21.56 L 15.33 20.74 L 20.22 15.85 L 21.04 16.67 C 22.17 17.8 24.03 17.8 25.16 16.67 C 25.88 15.95 26.13 14.92 25.93 13.98 C 26.4 13.85 26.83 13.62 27.2 13.25 C 28.33 12.12 28.33 10.26 27.2 9.13 L 25.86 7.76 L 26.53 7.09 L 25.13 5.69 L 24.46 6.36 L 23.09 5.02 C 22.53 4.46 21.85 4.2 21.1 4.2 Z"
      fill="url(#dumbbellFill)"
      stroke="#ffffff"
      stroke-width="0.7"
      stroke-linejoin="round"
    />
  </g>
  <text x="16" y="29" text-anchor="middle" font-size="6.6" font-weight="700" font-family="Arial, sans-serif" fill="#ffffff">
    MFE
  </text>
</svg>
